# xmcd
#
# Track frame offsets:
#	150
#	18485
#	38879
#	57211
#	66849
#	77842
#	87916
#	107910
#	127215
#	140334
#	153893
#	165777
#	183714
#	195217
#	215613
#	229383
#
# Disc length: 3279 seconds
#
# Revision: 0
# Processed by: cddbd v1.5.2PL0 Copyright (c) Steve Scherf et al.
# Submitted via: EasyCDDAExtractor 16.0.8.2
#
DISCID=d90ccd10
DTITLE=Συλλογικός δίσκος - Δημοτικό πανηγύρι 1
DYEAR=2015
DGENRE=Παραδοσιακή
TTITLE0=Πυργάκη Φιλιώ - Σαν περπατάς, παραπατάς [Κ.Πίτσος-Κ.Παπαβασιλείου]
TTITLE1=Βελισσάρης Γιώργος - Θα αλλάξω γειτονιά [Κώστας Πίτσος]
TTITLE2=Σιέττος Γιάννης - Μιά αγάπη από τα παλιά [Γ. Σιέττος]
TTITLE3=Καψάλης Γιάννης - Το ραβασάκι [Σούκας-Αλ. Κιτσάκης]
TTITLE4=Καψάλης Γιάννης - Πάρε τ' αμάξι [Κ. Πίτσος-Δημ. Βαρσαμίδης]
TTITLE5=Κατσιγιάννη Τζένη - Μπήκε στο χορό Γ. Πολύζος]
TTITLE6=Γρίβα Γιώτα - Απόψε ήρθε να με δει [Κ. Πίτσος-Ρούλα Βλάχου]
TTITLE7=Γρίβα Γιώτα - Έλα ν' αλλάξουμε καρδιές [Κ. Πίτσος-Δημ. Κατσαούνης]
TTITLE8=Πυργάκη Φιλιώ - Την Κυριακή χαράματα [Κ. Πίτσος-Γ. Πίας]
TTITLE9=Βελισσάρης Γιώργος - Εγώ δεν θέλω παντρειά [Κ. Πίτσος-Γ. Πίας]
TTITLE10=Βελισσάρης Γιώργος - Η βλάχα [Κ. Πίτσος-Περικλής Σούρλας]]
TTITLE11=Καψάλης Γιάννης - Τα καγκέλια [Πετρολούκας Χαλκιάς-Κυρίτσης]
TTITLE12=Σιέττος Γιάννης - Χίλια γράμματα σού στέλνω[Γ. Σιέττος-Δημ. Κατσαούνη
TTITLE12=ς]
TTITLE13=Βέρρα Χαρά - Βρήκα φωτογραφία-Όμορφο λουλούδι[Πίτσος-Βαρσαμίδης-Κόρδα
TTITLE13=ς]
TTITLE14=Βέρρα Χαρά - Γράμματα σού στέλνω [Κώστας Πίτσος]
TTITLE15=Βέρρα Ξένια - Δεν σού κάνω τον άγιο-Θέλω να φιλήσω[Χρυσοβ.-Γιατράς-Σο
TTITLE15=ύτας]
EXTD=
EXTT0=
EXTT1=
EXTT2=
EXTT3=
EXTT4=
EXTT5=
EXTT6=
EXTT7=
EXTT8=
EXTT9=
EXTT10=
EXTT11=
EXTT12=
EXTT13=
EXTT14=
EXTT15=
PLAYORDER=
